<?xml version="1.0" encoding="utf-8"?>
<!-- Generator: Adobe Illustrator 21.0.2, SVG Export Plug-In . SVG Version: 6.00 Build 0)  -->
<!DOCTYPE svg PUBLIC "-//W3C//DTD SVG 1.1//EN" "http://www.w3.org/Graphics/SVG/1.1/DTD/svg11.dtd">
<svg version="1.1" id="Layer_1" xmlns="http://www.w3.org/2000/svg" xmlns:xlink="http://www.w3.org/1999/xlink" x="0px" y="0px"
	 width="204.7px" height="204.7px" viewBox="0 0 204.7 204.7" style="enable-background:new 0 0 204.7 204.7;" xml:space="preserve"
	>
<style type="text/css">
	.st0{fill:#00AEEF;}
	.st1{clip-path:url(#SVGID_2_);fill:#FFFFFF;}
	.st2{fill:#FFFFFF;}
	.st3{clip-path:url(#SVGID_4_);fill:#FFFFFF;}
	.st4{clip-path:url(#SVGID_6_);fill:#FFFFFF;}
	.st5{fill:none;stroke:#FFFFFF;stroke-width:0.85;stroke-miterlimit:3.864;}
	.st6{clip-path:url(#SVGID_8_);fill:#00AEEF;}
	.st7{clip-path:url(#SVGID_8_);fill:#FFFFFF;}
	.st8{clip-path:url(#SVGID_8_);fill:none;stroke:#FFFFFF;stroke-width:0.504;stroke-miterlimit:10;}
</style>
<rect x="88.9" y="0.1" transform="matrix(0.7071 -0.7071 0.7071 0.7071 -42.3866 102.5169)" width="27.3" height="204.7"/>
<rect x="0.7" y="89.1" transform="matrix(0.7071 -0.7071 0.7071 0.7071 -42.2548 102.8354)" width="204.7" height="26.7"/>
<rect x="0" y="89.2" width="204.7" height="26.7"/>
<rect x="89.4" y="179.1" class="st0" width="26.7" height="25.6"/>
<rect x="89.4" y="0" width="26.7" height="178.2"/>
<g>
	<defs>
		<rect id="SVGID_1_" x="-11.1" y="-11.1" width="226.8" height="226.8"/>
	</defs>
	<clipPath id="SVGID_2_">
		<use xlink:href="#SVGID_1_"  style="overflow:visible;"/>
	</clipPath>
	<path class="st1" d="M103.4,51.3c-0.6,0-1.1,0.2-1.5,0.6c-0.3,0.3-0.4,0.7-0.5,1.3l-0.1,0.8c0,0.3-0.2,0.6-0.3,0.8
		c-0.2,0.2-0.4,0.3-0.7,0.3c-0.6,0-1.1-0.5-1.1-1.3c0-0.6,0.1-1.1,0.6-1.6L99,51.5c-0.6,0.6-0.8,1.3-0.8,2.2c0,1.5,0.8,2.4,2.1,2.4
		c0.6,0,1-0.2,1.4-0.5c0.3-0.3,0.5-0.8,0.6-1.3l0.1-0.8c0.1-0.4,0.1-0.6,0.3-0.8c0.2-0.2,0.4-0.3,0.7-0.3c0.7,0,1.1,0.5,1.1,1.5
		c0,0.7-0.2,1.3-0.7,1.8l0.7,0.7c0.7-0.7,0.9-1.4,0.9-2.5C105.5,52.3,104.7,51.3,103.4,51.3"/>
</g>
<polygon class="st2" points="105.4,45.1 104.4,45.1 104.4,48.6 102.3,48.6 102.3,45.7 101.3,45.7 101.3,48.6 99.3,48.6 99.3,45.1 
	98.3,45.1 98.3,49.7 105.4,49.7 "/>
<polygon class="st2" points="105.4,39 104.4,39 104.4,42.5 98.3,42.5 98.3,43.6 105.4,43.6 "/>
<polygon class="st2" points="105.4,33.2 104.4,33.2 104.4,36.6 102.3,36.6 102.3,33.7 101.3,33.7 101.3,36.6 99.3,36.6 99.3,33.2 
	98.3,33.2 98.3,37.7 105.4,37.7 "/>
<g>
	<defs>
		<rect id="SVGID_3_" x="-11.1" y="-11.1" width="226.8" height="226.8"/>
	</defs>
	<clipPath id="SVGID_4_">
		<use xlink:href="#SVGID_3_"  style="overflow:visible;"/>
	</clipPath>
	<path class="st3" d="M103.3,26.7v1.1c0.7,0.2,1.2,0.7,1.2,1.4c0,0.4-0.2,0.8-0.4,1.1c-0.4,0.3-0.8,0.4-2.2,0.4
		c-1.4,0-1.8-0.1-2.2-0.4c-0.3-0.2-0.4-0.6-0.4-1.1c0-0.8,0.5-1.3,1.2-1.4v-1.1C99,27,98.2,28,98.2,29.3c0,0.7,0.3,1.4,0.8,1.9
		c0.7,0.7,1.5,0.7,2.9,0.7c1.4,0,2.2,0,2.9-0.7c0.5-0.5,0.8-1.1,0.8-1.9C105.5,28,104.7,27,103.3,26.7"/>
</g>
<polygon class="st2" points="99.3,21 98.3,21 98.3,26 99.3,26 99.3,24.1 105.4,24.1 105.4,23 99.3,23 "/>
<polygon class="st2" points="105.4,15.1 104.4,15.1 104.4,18.6 102.3,18.6 102.3,15.6 101.3,15.6 101.3,18.6 99.3,18.6 99.3,15.1 
	98.3,15.1 98.3,19.7 105.4,19.7 "/>
<g>
	<defs>
		<rect id="SVGID_5_" x="-11.1" y="-11.1" width="226.8" height="226.8"/>
	</defs>
	<clipPath id="SVGID_6_">
		<use xlink:href="#SVGID_5_"  style="overflow:visible;"/>
	</clipPath>
	<path class="st4" d="M101.8,9.6c1,0,1.8,0,2.2,0.4c0.3,0.3,0.5,0.7,0.5,1.2v1.3h-5.2v-1.3c0-0.5,0.1-0.9,0.5-1.2
		C100.2,9.6,100.8,9.6,101.8,9.6 M101.8,8.5c-1,0-2.1,0-2.8,0.7c-0.4,0.4-0.7,1.1-0.7,1.8v2.5h7.1V11c0-0.7-0.2-1.4-0.7-1.8
		C104,8.4,102.8,8.5,101.8,8.5"/>
</g>
<line class="st5" x1="88.2" y1="178.6" x2="117.4" y2="178.6"/>
<g>
	<defs>
		<rect id="SVGID_7_" x="-11.1" y="-11.1" width="226.8" height="226.8"/>
	</defs>
	<clipPath id="SVGID_8_">
		<use xlink:href="#SVGID_7_"  style="overflow:visible;"/>
	</clipPath>
	<path class="st6" d="M99.7,147.9h-1.2v4.7h2.4v-1.3h-1.2v-1.9l6.1,2.4v-1.5L99.7,147.9z M105.9,154.8h-7.4v1.3l1.3,1.5h1.4
		l-1.3-1.5h5.9V154.8z M103.7,160.6c0.6,0,1,0.4,1,0.9c0,0.5-0.4,0.9-1,0.9h-3.1c-0.6,0-1-0.4-1-0.9c0-0.5,0.4-0.9,1-0.9H103.7z
		 M103.8,159.3h-3.1c-1.4,0-2.2,1-2.2,2.2s0.8,2.2,2.2,2.2h3.1c1.4,0,2.2-1,2.2-2.2S105.2,159.3,103.8,159.3 M105.9,164.9h-1.2v2.8
		l-2.4-2.1c-0.6-0.5-1-0.8-1.7-0.8c-1.3,0-2.1,0.9-2.1,2.2c0,1.3,0.8,2.2,2.1,2.2V168c-0.7,0-0.9-0.5-0.9-0.9c0-0.6,0.4-0.9,0.9-0.9
		c0.3,0,0.6,0.1,0.9,0.4l3.2,2.7h1.2V164.9z"/>
	<path class="st7" d="M105.2,126.1v1.7c2,0.4,3.3,1.9,3.3,3.9c0,1.1-0.4,2.1-1.1,2.8c-1.1,1-2.2,1.1-5.6,1.1c-3.4,0-4.5-0.1-5.6-1.1
		c-0.7-0.7-1.1-1.7-1.1-2.8c0-2,1.3-3.4,3.3-3.9v-1.8c-3.1,0.5-4.8,2.7-4.8,5.6c0,1.6,0.6,3.1,1.7,4.2c1.5,1.5,3.1,1.5,6.6,1.5
		c3.4,0,5,0,6.6-1.5c1.1-1.1,1.7-2.6,1.7-4.2C110.1,128.9,108.3,126.6,105.2,126.1"/>
	<path class="st8" d="M105.2,126.1v1.7c2,0.4,3.3,1.9,3.3,3.9c0,1.1-0.4,2.1-1.1,2.8c-1.1,1-2.2,1.1-5.6,1.1c-3.4,0-4.5-0.1-5.6-1.1
		c-0.7-0.7-1.1-1.7-1.1-2.8c0-2,1.3-3.4,3.3-3.9v-1.8c-3.1,0.5-4.8,2.7-4.8,5.6c0,1.6,0.6,3.1,1.7,4.2c1.5,1.5,3.1,1.5,6.6,1.5
		c3.4,0,5,0,6.6-1.5c1.1-1.1,1.7-2.6,1.7-4.2C110.1,128.9,108.3,126.6,105.2,126.1z"/>
	<path class="st7" d="M101.8,114.4c3.4,0,4.5,0.1,5.5,1.1c0.7,0.7,1.2,1.7,1.2,2.8c0,1.1-0.4,2.1-1.2,2.8c-1.1,1-2.1,1.1-5.5,1.1
		c-3.4,0-4.5-0.1-5.5-1.1c-0.7-0.7-1.2-1.7-1.2-2.8c0-1.1,0.4-2.1,1.2-2.8C97.3,114.5,98.4,114.4,101.8,114.4 M101.8,112.7
		c-3.4,0-5,0-6.6,1.5c-1.1,1.1-1.7,2.5-1.7,4.2c0,1.6,0.6,3.1,1.7,4.2c1.5,1.5,3.1,1.5,6.6,1.5c3.4,0,5,0,6.6-1.5
		c1.1-1.1,1.7-2.5,1.7-4.2c0-1.6-0.6-3.1-1.7-4.2C106.8,112.7,105.2,112.7,101.8,112.7"/>
	<path class="st8" d="M101.8,114.4c3.4,0,4.5,0.1,5.5,1.1c0.7,0.7,1.2,1.7,1.2,2.8c0,1.1-0.4,2.1-1.2,2.8c-1.1,1-2.1,1.1-5.5,1.1
		c-3.4,0-4.5-0.1-5.5-1.1c-0.7-0.7-1.2-1.7-1.2-2.8c0-1.1,0.4-2.1,1.2-2.8C97.3,114.5,98.4,114.4,101.8,114.4z M101.8,112.7
		c-3.4,0-5,0-6.6,1.5c-1.1,1.1-1.7,2.5-1.7,4.2c0,1.6,0.6,3.1,1.7,4.2c1.5,1.5,3.1,1.5,6.6,1.5c3.4,0,5,0,6.6-1.5
		c1.1-1.1,1.7-2.5,1.7-4.2c0-1.6-0.6-3.1-1.7-4.2C106.8,112.7,105.2,112.7,101.8,112.7z"/>
	<path class="st7" d="M105.2,79.7v1.7c2,0.4,3.3,1.9,3.3,3.9c0,1.1-0.4,2.1-1.1,2.8c-1.1,1-2.2,1.1-5.6,1.1c-3.4,0-4.5-0.1-5.6-1.1
		c-0.7-0.7-1.1-1.7-1.1-2.8c0-2,1.3-3.4,3.3-3.9v-1.8c-3.1,0.5-4.8,2.7-4.8,5.6c0,1.6,0.6,3.1,1.7,4.2c1.5,1.5,3.1,1.5,6.6,1.5
		c3.4,0,5,0,6.6-1.5c1.1-1.1,1.7-2.6,1.7-4.2C110.1,82.5,108.3,80.3,105.2,79.7"/>
	<path class="st8" d="M105.2,79.7v1.7c2,0.4,3.3,1.9,3.3,3.9c0,1.1-0.4,2.1-1.1,2.8c-1.1,1-2.2,1.1-5.6,1.1c-3.4,0-4.5-0.1-5.6-1.1
		c-0.7-0.7-1.1-1.7-1.1-2.8c0-2,1.3-3.4,3.3-3.9v-1.8c-3.1,0.5-4.8,2.7-4.8,5.6c0,1.6,0.6,3.1,1.7,4.2c1.5,1.5,3.1,1.5,6.6,1.5
		c3.4,0,5,0,6.6-1.5c1.1-1.1,1.7-2.6,1.7-4.2C110.1,82.5,108.3,80.3,105.2,79.7z"/>
	<path class="st7" d="M101.8,68c3.4,0,4.5,0.1,5.5,1.1c0.7,0.7,1.2,1.7,1.2,2.8c0,1.1-0.4,2.1-1.2,2.8c-1.1,1-2.1,1.1-5.5,1.1
		c-3.4,0-4.5-0.1-5.5-1.1c-0.7-0.7-1.2-1.7-1.2-2.8c0-1.1,0.4-2.1,1.2-2.8C97.3,68.1,98.4,68,101.8,68 M101.8,66.3
		c-3.4,0-5,0-6.6,1.5c-1.1,1.1-1.7,2.5-1.7,4.2c0,1.6,0.6,3.1,1.7,4.2c1.5,1.5,3.1,1.5,6.6,1.5c3.4,0,5,0,6.6-1.5
		c1.1-1.1,1.7-2.5,1.7-4.2c0-1.6-0.6-3.1-1.7-4.2C106.8,66.3,105.2,66.3,101.8,66.3"/>
	<path class="st8" d="M101.8,68c3.4,0,4.5,0.1,5.5,1.1c0.7,0.7,1.2,1.7,1.2,2.8c0,1.1-0.4,2.1-1.2,2.8c-1.1,1-2.1,1.1-5.5,1.1
		c-3.4,0-4.5-0.1-5.5-1.1c-0.7-0.7-1.2-1.7-1.2-2.8c0-1.1,0.4-2.1,1.2-2.8C97.3,68.1,98.4,68,101.8,68z M101.8,66.3
		c-3.4,0-5,0-6.6,1.5c-1.1,1.1-1.7,2.5-1.7,4.2c0,1.6,0.6,3.1,1.7,4.2c1.5,1.5,3.1,1.5,6.6,1.5c3.4,0,5,0,6.6-1.5
		c1.1-1.1,1.7-2.5,1.7-4.2c0-1.6-0.6-3.1-1.7-4.2C106.8,66.3,105.2,66.3,101.8,66.3z"/>
	<path class="st6" d="M102.3,106.2c-0.8,0.7-1.5,1-2.4,1c-1.4,0-2.5-0.9-2.5-2.3c0-1.2,0.7-1.8,1.6-2.5L102.3,106.2z M101.5,97.2
		c0,0.6-0.4,1-0.9,1.4c0,0-0.5,0.3-0.7,0.5c-0.6-0.7-1.1-1.2-1.1-1.8c0-0.8,0.5-1.3,1.3-1.3C101,95.9,101.5,96.5,101.5,97.2
		 M109.1,109.7l-2.9-3.4c1.1-1.3,1.6-2.9,1.7-5h-2.8c0,1.2-0.3,2.1-0.8,2.9l-2.7-3.2c0.4-0.3,1.2-0.8,1.2-0.8c1-0.7,1.7-1.6,1.7-2.8
		c0-2.2-1.6-3.8-4.2-3.8c-2.7,0-4.3,1.6-4.3,3.8c0,1.6,1,2.7,1.6,3.4c-1.4,0.9-2.9,2.3-2.9,4.4c0,3.1,1.8,4.9,5.4,4.9
		c2.3,0,3.4-1,4.2-1.6l1.2,1.4H109.1z"/>
</g>
</svg>
