<svg id="Layer_1" data-name="Layer 1" xmlns="http://www.w3.org/2000/svg" viewBox="0 0 169.15 294.18">
  <title>comp-sternchen</title>
  <path d="M114.14,41c0.72,0.24,2.61,1,2.61,2.14a4.3,4.3,0,0,1-1.42,2.37c-1,1.18-8.68,9.79-9.8,12.8a8.07,8.07,0,0,0,3.63,10.2,11.67,11.67,0,0,1,1.8.88c3.32,1.65,3.66,1.73,5.8,1.73,5,0,6.88-4.51,10.9-13.75,1.9-4,3.56-7.59,5.22-7.59,1.42,0,7.35,10.44,7.82,11.62,2.37,5.22,2.61,5.7,4.51,7.59,1.42,1.42,2.6,2.14,4.27,2.14,2.61,0,7.35-2.85,7.58-3.08,1.43-1.19,3.56-4.27,3.56-6.64,0-.23,0-4.27-5.21-10-1-1.19-6.64-8.3-6.64-8.77,0-1.42.47-1.66,3.08-2.14,1.42-.24,6.88-1.9,8.54-2.14,5.93-1.42,8.77-3.79,8.77-8.06S165.83,19,159.43,19a10.34,10.34,0,0,0-5,1.66c-3.56,2.13-10.67,5-11.86,5-1.66,0-1.9-1.9-1.9-3.55,0-1,1-10.68,1-12.57s-0.24-5-1.9-6.64C138.8,1.65,135.24,0,131.45,0,126,0,122,2.6,122,9.72c0,1.42,1.42,12.56,1.42,13,0,2.84-1,2.84-1.65,2.84-1,0-9.49-3.55-11.38-4.27a20.93,20.93,0,0,0-6.64-1.42c-5.69,0-9,8.54-9,11.38,0,2.61,1.65,5.21,3.08,5.93,1.42,1,2.85,1,4.51,1.42,0,0,10.19,1.9,11.86,2.37" style="fill: #231f20"/>
  <path d="M21,41c0.72,0.24,2.61,1,2.61,2.14a4.3,4.3,0,0,1-1.42,2.37c-1,1.18-8.68,9.79-9.8,12.8A8.07,8.07,0,0,0,16,68.51a11.67,11.67,0,0,1,1.8.88c3.32,1.65,3.66,1.73,5.8,1.73,5,0,6.88-4.51,10.9-13.75,1.9-4,3.56-7.59,5.22-7.59,1.42,0,7.35,10.44,7.82,11.62,2.37,5.22,2.61,5.7,4.51,7.59,1.42,1.42,2.6,2.14,4.27,2.14,2.61,0,7.35-2.85,7.58-3.08,1.43-1.19,3.56-4.27,3.56-6.64,0-.23,0-4.27-5.21-10-1-1.19-6.64-8.3-6.64-8.77,0-1.42.47-1.66,3.08-2.14,1.42-.24,6.88-1.9,8.54-2.14,6-1.36,8.75-3.74,8.75-8S72.73,19,66.33,19a10.34,10.34,0,0,0-5,1.66c-3.56,2.13-10.67,5-11.86,5-1.66,0-1.9-1.9-1.9-3.55,0-1,1-10.68,1-12.57s-0.24-5-1.9-6.64C45.7,1.65,42.14,0,38.34,0c-5.45,0-9.49,2.6-9.49,9.72,0,1.42,1.42,12.56,1.42,13,0,2.84-1,2.84-1.65,2.84-1,0-9.49-3.55-11.38-4.27a20.93,20.93,0,0,0-6.64-1.42c-5.69,0-9,8.54-9,11.38,0,2.61,1.65,5.21,3.08,5.93,1.42,1,2.85,1,4.51,1.42,0,0,10.19,1.9,11.86,2.37" style="fill: #231f20"/>
</svg>
