<svg id="Layer_1" data-name="Layer 1" xmlns="http://www.w3.org/2000/svg" viewBox="0 0 500.15 294.18">
  <defs>
    <style>
      .cls-1 {
        fill: #231f20;
      }
    </style>
  </defs>
  <title>vsternchen</title>
  <path class="cls-1" d="M445.14,41c0.72,0.24,2.61.95,2.61,2.14a4.3,4.3,0,0,1-1.42,2.37c-0.95,1.18-8.68,9.79-9.8,12.8a8.07,8.07,0,0,0,3.63,10.2,11.67,11.67,0,0,1,1.8.88c3.32,1.65,3.66,1.73,5.8,1.73,5,0,6.88-4.51,10.9-13.75,1.9-4,3.56-7.59,5.22-7.59,1.42,0,7.35,10.44,7.82,11.62,2.37,5.22,2.61,5.7,4.51,7.59,1.42,1.42,2.6,2.14,4.27,2.14,2.61,0,7.35-2.85,7.58-3.08,1.43-1.19,3.56-4.27,3.56-6.64,0-.23,0-4.27-5.21-10-0.95-1.19-6.64-8.3-6.64-8.77,0-1.42.47-1.66,3.08-2.14,1.42-.24,6.88-1.9,8.54-2.14,5.93-1.42,8.77-3.79,8.77-8.06S496.83,19,490.43,19a10.34,10.34,0,0,0-5,1.66c-3.56,2.13-10.67,5-11.86,5-1.66,0-1.9-1.9-1.9-3.55,0-.95.95-10.68,0.95-12.57s-0.24-5-1.9-6.64C469.8,1.65,466.24,0,462.45,0,457,0,453,2.6,453,9.72c0,1.42,1.42,12.56,1.42,13,0,2.84-.95,2.84-1.65,2.84-1,0-9.49-3.55-11.38-4.27a20.93,20.93,0,0,0-6.64-1.42c-5.69,0-9,8.54-9,11.38,0,2.61,1.65,5.21,3.08,5.93,1.42,0.95,2.85.95,4.51,1.42,0,0,10.19,1.9,11.86,2.37"/>
  <path class="cls-1" d="M352,41c0.72,0.24,2.61.95,2.61,2.14a4.3,4.3,0,0,1-1.42,2.37c-0.95,1.18-8.68,9.79-9.8,12.8a8.07,8.07,0,0,0,3.63,10.2,11.67,11.67,0,0,1,1.8.88c3.32,1.65,3.66,1.73,5.8,1.73,5,0,6.88-4.51,10.9-13.75,1.9-4,3.56-7.59,5.22-7.59,1.42,0,7.35,10.44,7.82,11.62,2.37,5.22,2.61,5.7,4.51,7.59,1.42,1.42,2.6,2.14,4.27,2.14,2.61,0,7.35-2.85,7.58-3.08,1.43-1.19,3.56-4.27,3.56-6.64,0-.23,0-4.27-5.21-10-0.95-1.19-6.64-8.3-6.64-8.77,0-1.42.47-1.66,3.08-2.14,1.42-.24,6.88-1.9,8.54-2.14C404.2,37,407,34.62,407,30.35S403.73,19,397.33,19a10.34,10.34,0,0,0-5,1.66c-3.56,2.13-10.67,5-11.86,5-1.66,0-1.9-1.9-1.9-3.55,0-.95.95-10.68,0.95-12.57s-0.24-5-1.9-6.64C376.7,1.65,373.14,0,369.34,0c-5.45,0-9.49,2.6-9.49,9.72,0,1.42,1.42,12.56,1.42,13,0,2.84-.95,2.84-1.65,2.84-1,0-9.49-3.55-11.38-4.27a20.93,20.93,0,0,0-6.64-1.42c-5.69,0-9,8.54-9,11.38,0,2.61,1.65,5.21,3.08,5.93,1.42,0.95,2.85.95,4.51,1.42,0,0,10.19,1.9,11.86,2.37"/>
  <polygon class="cls-1" points="303.35 50.5 303.35 25.72 188.71 25.72 188.71 50.5 225.16 50.5 151.68 258.36 78.19 50.5 114.64 50.5 114.64 25.72 0 25.72 0 50.5 44.9 50.5 136.34 294.18 167.02 294.18 258.45 50.5 303.35 50.5"/>
</svg>
